<svg width="393" height="393" viewBox="0 0 393 393" fill="none" xmlns="http://www.w3.org/2000/svg">
<rect width="393" height="393" rx="50" fill="#474747"/>
<path d="M71 200.334L183 128.778V306.5H197V103.221L57 192.665V376H84H197V350H183V362H71V200.334Z" fill="#38D5DF"/>
<path d="M290.291 225.65L322.5 242.265V362H226V192.487L260.709 210.391V194.638L212 169.512V376H336.5V233.734L290.291 209.898V225.65Z" fill="#31D687"/>
<path d="M115 18V142.5L129 133.5V37.9991L268 87.8998V322.5H238.25V336.5H282V78.0993L115 18Z" fill="#4968D3"/>
<path d="M129 174.5V322.5H197.5V336.5H115V182.5L129 174.5Z" fill="#4968D3"/>
</svg>
