<svg width="280" height="358" viewBox="0 0 280 358" fill="none" xmlns="http://www.w3.org/2000/svg">
<path d="M14 182.334L126 110.778V288.5H140V85.2207L0 174.665V358H27H140V332H126V344H14V182.334Z" fill="#38D5DF"/>
<path d="M233.291 207.65L265.5 224.265V344H169V174.487L203.709 192.391V176.638L155 151.512V358H279.5V215.734L233.291 191.898V207.65Z" fill="#31D687"/>
<path d="M58 0V124.5L72 115.5V19.9991L211 69.8998V304.5H181.25V318.5H225V60.0993L58 0Z" fill="#4968D3"/>
<path d="M72 156.5V304.5H140.5V318.5H58V164.5L72 156.5Z" fill="#4968D3"/>
</svg>
