<svg id="Comercial" xmlns="http://www.w3.org/2000/svg" width="189.555" height="207.133" viewBox="0 0 189.555 207.133">
  <g id="Group_101" data-name="Group 101">
    <g id="Group_98" data-name="Group 98">
      <path id="Path_185" data-name="Path 185" d="M459.756,762.658c-.046-.2-83.176-46.266-83.724-46.661-.594-.444-91.032,55-91.032,55l81.851,51.051Z" transform="translate(-285 -614.911)" fill="#afafaf"/>
      <path id="Path_186" data-name="Path 186" d="M619.3,703.826l36.86-25.9-1.1-1.43L619.3,702.346Z" transform="translate(-466.605 -594.897)" fill="#6b3d44"/>
      <path id="Path_187" data-name="Path 187" d="M630.122,698.8a.917.917,0,0,0,0,1.825A.917.917,0,0,0,630.122,698.8Z" transform="translate(-472.038 -606.198)" fill="#fff"/>
      <g id="Group_97" data-name="Group 97" transform="translate(14.114)">
        <g id="Group_83" data-name="Group 83" transform="translate(0.046 7.123)">
          <g id="Group_82" data-name="Group 82">
            <g id="Group_81" data-name="Group 81">
              <g id="Group_78" data-name="Group 78" transform="translate(0 87.101)">
                <path id="Path_188" data-name="Path 188" d="M461.478,744.957s-72.077-42.271-72.762-42.863S316,744.957,316,744.957l73.036,45.329Z" transform="translate(-316 -702.088)" fill="#a2acbc"/>
                <path id="Path_189" data-name="Path 189" d="M389.036,834.329,316,789v9.914L388.351,843.6l73.127-44.688V789Z" transform="translate(-316 -746.131)" fill="#bf3d34"/>
                <g id="Group_74" data-name="Group 74" transform="translate(40.926 26.023)">
                  <g id="Group_73" data-name="Group 73" transform="translate(1.964)">
                    <path id="Path_190" data-name="Path 190" d="M411.507,763.027l12.15-7.695a3.1,3.1,0,0,1,4.659,2.861v6.314a3.417,3.417,0,0,1-1.507,2.861l-12.15,7.695A3.1,3.1,0,0,1,410,772.2v-6.314A3.309,3.309,0,0,1,411.507,763.027Z" transform="translate(-409.954 -754.863)" fill="#9b3930"/>
                    <path id="Path_191" data-name="Path 191" d="M431.281,771.586c.137-.543,25.67,15.833,25.67,15.833l-15.576,11.443L418.4,780.169Z" transform="translate(-414.518 -763.323)" fill="#9b3930"/>
                    <g id="Group_72" data-name="Group 72" transform="translate(26.857 18.201)">
                      <path id="Path_192" data-name="Path 192" d="M470.207,799.927l12.15-7.695a3.1,3.1,0,0,1,4.659,2.861v6.313a3.417,3.417,0,0,1-1.507,2.861l-12.15,7.695A3.1,3.1,0,0,1,468.7,809.1v-6.313A3.417,3.417,0,0,1,470.207,799.927Z" transform="translate(-468.7 -791.763)" fill="#9b3930"/>
                      <path id="Path_193" data-name="Path 193" d="M470.207,799.912l12.15-7.695a2.914,2.914,0,0,1,4.065.937,2.854,2.854,0,0,0-2.329.345l-12.1,7.744a3.31,3.31,0,0,0-1.507,2.861v6.314a3.751,3.751,0,0,0,.548,1.924,3.256,3.256,0,0,1-2.329-3.206v-6.314A3.441,3.441,0,0,1,470.207,799.912Z" transform="translate(-468.7 -791.747)" fill="#ec5946"/>
                    </g>
                    <path id="Path_194" data-name="Path 194" d="M411.453,763.012l12.15-7.695a2.914,2.914,0,0,1,4.065.937,2.854,2.854,0,0,0-2.329.345l-12.15,7.695a3.309,3.309,0,0,0-1.507,2.861v6.314a3.751,3.751,0,0,0,.548,1.924,3.256,3.256,0,0,1-2.329-3.206v-6.313A3.457,3.457,0,0,1,411.453,763.012Z" transform="translate(-409.9 -754.847)" fill="#ec5946"/>
                  </g>
                  <path id="Path_195" data-name="Path 195" d="M435.2,776.619l-21.422-13.564c-3.608-2.318-8.176.543-8.176,5.08v11.1a6,6,0,0,0,2.695,5.08l21.422,13.564c3.608,2.318,8.176-.542,8.176-5.08V781.7A5.986,5.986,0,0,0,435.2,776.619Z" transform="translate(-405.6 -758.589)" fill="#9b3930"/>
                  <path id="Path_196" data-name="Path 196" d="M436.393,776.638l-21.422-13.564a5.185,5.185,0,0,0-7.171,1.677,5.148,5.148,0,0,1,4.111.641l21.422,13.564a5.986,5.986,0,0,1,2.695,5.08v11.1a6.031,6.031,0,0,1-1,3.4,5.788,5.788,0,0,0,4.065-5.672v-11.1A6.01,6.01,0,0,0,436.393,776.638Z" transform="translate(-406.795 -758.609)" fill="#ec5946"/>
                </g>
                <g id="Group_77" data-name="Group 77" transform="translate(91.215 26.568)">
                  <g id="Group_76" data-name="Group 76">
                    <path id="Path_197" data-name="Path 197" d="M582.89,763.241l-10.779-6.856A2.737,2.737,0,0,0,568,758.95v5.623a3.012,3.012,0,0,0,1.37,2.565l10.78,6.856a2.737,2.737,0,0,0,4.111-2.565v-5.623A3.171,3.171,0,0,0,582.89,763.241Z" transform="translate(-544.112 -755.966)" fill="#9b3930"/>
                    <path id="Path_198" data-name="Path 198" d="M543.738,770.887c-.091-.493-22.838,14.057-22.838,14.057l13.84,10.21L555.2,778.533Z" transform="translate(-518.525 -763.514)" fill="#9b3930"/>
                    <g id="Group_75" data-name="Group 75" transform="translate(0 16.228)">
                      <path id="Path_199" data-name="Path 199" d="M530.59,796.141l-10.78-6.856a2.737,2.737,0,0,0-4.111,2.565v5.623a3.012,3.012,0,0,0,1.37,2.565l10.78,6.856a2.737,2.737,0,0,0,4.111-2.565v-5.623A3.056,3.056,0,0,0,530.59,796.141Z" transform="translate(-515.7 -788.866)" fill="#9b3930"/>
                      <path id="Path_200" data-name="Path 200" d="M531.188,796.126l-10.779-6.856a2.577,2.577,0,0,0-3.608.839,2.561,2.561,0,0,1,2.055.3l10.78,6.856a3.056,3.056,0,0,1,1.37,2.565v5.623a3.157,3.157,0,0,1-.5,1.726,2.894,2.894,0,0,0,2.055-2.861v-5.623A3.056,3.056,0,0,0,531.188,796.126Z" transform="translate(-516.298 -788.851)" fill="#ec5946"/>
                    </g>
                    <path id="Path_201" data-name="Path 201" d="M583.488,763.226l-10.78-6.856a2.577,2.577,0,0,0-3.608.839,2.561,2.561,0,0,1,2.055.3l10.779,6.856a3.056,3.056,0,0,1,1.37,2.565v5.623a3.157,3.157,0,0,1-.5,1.726,2.9,2.9,0,0,0,2.055-2.861v-5.623A3.171,3.171,0,0,0,583.488,763.226Z" transform="translate(-544.709 -755.951)" fill="#ec5946"/>
                  </g>
                  <path id="Path_202" data-name="Path 202" d="M546.973,775.344l19.047-12.085c3.243-2.022,7.262.444,7.262,4.489v9.865a5.291,5.291,0,0,1-2.375,4.489l-19.047,12.084c-3.243,2.022-7.263-.444-7.263-4.489v-9.865A5.143,5.143,0,0,1,546.973,775.344Z" transform="translate(-531.398 -759.289)" fill="#9b3930"/>
                  <path id="Path_203" data-name="Path 203" d="M546.921,775.33l19.047-12.085a4.6,4.6,0,0,1,6.395,1.48,4.435,4.435,0,0,0-3.654.543l-19.047,12.084a5.354,5.354,0,0,0-2.375,4.489v9.865a5.479,5.479,0,0,0,.868,3.009,5.14,5.14,0,0,1-3.654-5.031v-9.865A5.286,5.286,0,0,1,546.921,775.33Z" transform="translate(-531.345 -759.275)" fill="#ec5946"/>
                </g>
                <path id="Path_204" data-name="Path 204" d="M316,789v9.914L388.351,843.6l.411-.247v-9.322Z" transform="translate(-316 -746.131)" fill="#ec5946"/>
              </g>
              <path id="Path_205" data-name="Path 205" d="M316,603.5v92.829l73.036,44-.274-82.421v-9.372Z" transform="translate(-316 -565.027)" fill="#fcd277"/>
              <g id="Group_79" data-name="Group 79">
                <path id="Path_206" data-name="Path 206" d="M474.4,525.5v93.125l.639,82.174,72.488-45.329v-91.5Zm68.331,120.45-36.267,22.2V608.464l34.257-19.582Z" transform="translate(-402.049 -525.5)" fill="#fec83d"/>
                <path id="Path_207" data-name="Path 207" d="M506.419,666.183l3.106-1.776c-6.486-8.484-13.2-16.77-19.915-25.007a33.862,33.862,0,0,0-15.21,4.587v32.357l.274,35.464c10.231-9.174,20.828-17.9,31.745-26.093Z" transform="translate(-402.049 -583.219)" fill="#a57408"/>
                <path id="Path_208" data-name="Path 208" d="M544.737,666.293,544.6,729.97l36.267-22.2V647.5Zm34.12,40.841-32.11,19.631V667.082l32.11-16.425Z" transform="translate(-440.185 -587.324)" fill="#6b3d44"/>
                <path id="Path_209" data-name="Path 209" d="M388.762,648.533,316,603.5v9.914l72.351,44.737,73.127-44.737V603.5Z" transform="translate(-316 -565.027)" fill="#6b3d44"/>
                <path id="Path_210" data-name="Path 210" d="M388.9,648.435l-.137.1L316,603.5v9.914L388.351,658.1l.548-.345Z" transform="translate(-316 -565.027)" fill="#ec5946"/>
              </g>
              <g id="Group_80" data-name="Group 80" transform="translate(81.577 118.704)">
                <path id="Path_211" data-name="Path 211" d="M511.5,766.278l-15.712,9.816a2.172,2.172,0,0,0-1.188,1.973V826.06l18.636-11.394v-47.2A1.244,1.244,0,0,0,511.5,766.278Z" transform="translate(-494.6 -766.16)" fill="#6b3d44"/>
                <path id="Path_212" data-name="Path 212" d="M503.806,838.973A1.6,1.6,0,1,1,502.253,837,1.8,1.8,0,0,1,503.806,838.973Z" transform="translate(-497.914 -802.059)" fill="#25282d"/>
              </g>
            </g>
          </g>
        </g>
        <g id="Group_84" data-name="Group 84" transform="translate(106.608 70.505)">
          <path id="Path_213" data-name="Path 213" d="M569.631,667.086,552,735.45l3.517-2.121,17.22-67.229Z" transform="translate(-550.767 -660.132)" fill="#dce7fd" opacity="0.59"/>
          <path id="Path_214" data-name="Path 214" d="M549.3,730.058l32.11-19.631V654L549.3,670.425Z" transform="translate(-549.3 -654)" fill="#fff" opacity="0.59"/>
        </g>
        <path id="Path_215" data-name="Path 215" d="M461.424,559.458c-.091-.2-72.077-42.37-72.762-42.863-.731-.543-72.762,42.863-72.762,42.863l72.762,45.033Z" transform="translate(-315.9 -513.862)" fill="#fcd277"/>
        <path id="Path_216" data-name="Path 216" d="M522.2,528.1c.137,0,6.166,3.4,6.166,3.4v1.726l-6.166-3.551Z" transform="translate(-427.97 -519.695)" fill="#3e4249"/>
        <path id="Path_217" data-name="Path 217" d="M522.2,534.9c.137,0,6.166,3.4,6.166,3.4v1.726l-6.166-3.551Z" transform="translate(-427.97 -523.141)" fill="#3e4249"/>
        <path id="Path_218" data-name="Path 218" d="M512.54,511.918a3.788,3.788,0,0,0-4.385-.3,4.6,4.6,0,0,0-2.055,4v8.336a.825.825,0,0,0,.411.74h0a.8.8,0,0,0,1.188-.74v-8.385a2.724,2.724,0,0,1,1.279-2.417,2.205,2.205,0,0,1,2.329.049,2.85,2.85,0,0,1,1.233,2.417v10.358c.548.3,1.1.641,1.6.937v-11.3A4.593,4.593,0,0,0,512.54,511.918Z" transform="translate(-419.224 -511.059)" fill="#3e4249"/>
        <path id="Path_219" data-name="Path 219" d="M463.534,566.6c-.046-.2-61.069-35.859-61.617-36.3-.594-.444-61.617,36.3-61.617,36.3l61.617,38.128Z" transform="translate(-329.155 -520.805)" fill="#a57408"/>
        <path id="Path_220" data-name="Path 220" d="M461.03,568.126l2.6-1.628c-.046-.2-61.069-35.859-61.617-36.3-.594-.444-61.617,36.3-61.617,36.3l2.238,1.381c11.647-7,58.465-35.119,59.013-34.724C402.108,533.55,450.068,561.616,461.03,568.126Z" transform="translate(-329.209 -520.755)" fill="#3f1e25"/>
        <g id="Group_86" data-name="Group 86" transform="translate(46.224 103.305)">
          <g id="Group_85" data-name="Group 85" transform="translate(1.507 2.664)">
            <path id="Path_221" data-name="Path 221" d="M434.24,774.978l-13.84-7.991V725.9l13.84,7.991Z" transform="translate(-420.4 -725.9)" fill="#25282d"/>
            <path id="Path_222" data-name="Path 222" d="M420.4,725.9l13.84,7.991v18.4c-2.923-1.924-9.546-5.82-13.84-8.385Z" transform="translate(-420.4 -725.9)" fill="#626d7c"/>
            <path id="Path_223" data-name="Path 223" d="M427.9,730.2l6.3,21.949,1.6,1.726-6.258-22.887Z" transform="translate(-424.474 -728.079)" fill="#76879b"/>
          </g>
          <path id="Path_224" data-name="Path 224" d="M420.4,725.6l6.3,21.9,1.6,1.726L422.09,726.34Z" transform="translate(-418.893 -723.084)" fill="#76879b"/>
          <path id="Path_225" data-name="Path 225" d="M417.1,720.5v44.737l16.809,9.717V730.217Zm1.507,2.664,13.84,7.99v41.087l-13.84-7.991Z" transform="translate(-417.1 -720.5)" fill="#fdfeff"/>
          <path id="Path_226" data-name="Path 226" d="M433.867,770.022,418.2,760.7v2.17l15.667,9.322Z" transform="translate(-417.698 -740.872)" fill="#fdfeff"/>
        </g>
        <g id="Group_88" data-name="Group 88" transform="translate(2.101 79.284)">
          <g id="Group_87" data-name="Group 87" transform="translate(1.462 2.664)">
            <path id="Path_227" data-name="Path 227" d="M337.54,726.278l-13.84-7.991V677.2l13.84,7.991Z" transform="translate(-323.7 -677.2)" fill="#25282d"/>
            <path id="Path_228" data-name="Path 228" d="M323.7,677.2l13.84,7.991v18.4c-2.923-1.924-9.546-5.82-13.84-8.385Z" transform="translate(-323.7 -677.2)" fill="#626d7c"/>
            <path id="Path_229" data-name="Path 229" d="M331.2,681.6l6.3,21.9,1.6,1.726L332.89,682.34Z" transform="translate(-327.774 -679.43)" fill="#76879b"/>
          </g>
          <path id="Path_230" data-name="Path 230" d="M323.7,676.9l6.3,21.9,1.6,1.726L325.39,677.64Z" transform="translate(-322.238 -674.384)" fill="#76879b"/>
          <path id="Path_231" data-name="Path 231" d="M320.5,671.8v44.737l16.809,9.717V681.517Zm1.462,2.664,13.84,7.991v41.087l-13.84-7.991Z" transform="translate(-320.5 -671.8)" fill="#fdfeff"/>
          <path id="Path_232" data-name="Path 232" d="M337.213,721.322,321.5,712v2.17l15.713,9.322Z" transform="translate(-321.043 -692.172)" fill="#fdfeff"/>
        </g>
        <g id="Group_90" data-name="Group 90" transform="translate(22.655 90.974)">
          <g id="Group_89" data-name="Group 89" transform="translate(1.462 2.664)">
            <path id="Path_233" data-name="Path 233" d="M382.54,749.978l-13.84-7.991V700.9l13.84,7.991Z" transform="translate(-368.7 -700.9)" fill="#25282d"/>
            <path id="Path_234" data-name="Path 234" d="M368.7,700.9l13.84,7.991v18.4c-2.923-1.924-9.546-5.82-13.84-8.385Z" transform="translate(-368.7 -700.9)" fill="#626d7c"/>
            <path id="Path_235" data-name="Path 235" d="M376.2,705.3l6.3,21.9,1.6,1.726-6.258-22.887Z" transform="translate(-372.774 -703.13)" fill="#76879b"/>
          </g>
          <path id="Path_236" data-name="Path 236" d="M368.7,700.6l6.3,21.9,1.6,1.776-6.212-22.887Z" transform="translate(-367.238 -698.084)" fill="#76879b"/>
          <path id="Path_237" data-name="Path 237" d="M365.5,695.5v44.737l16.809,9.717V705.217Zm1.462,2.664,13.84,7.991v41.087l-13.84-7.991Z" transform="translate(-365.5 -695.5)" fill="#fdfeff"/>
          <path id="Path_238" data-name="Path 238" d="M382.213,745.122,366.5,735.8v2.121l15.713,9.322Z" transform="translate(-366.043 -715.922)" fill="#fdfeff"/>
        </g>
        <g id="Group_94" data-name="Group 94" transform="translate(19.367 12.153)">
          <path id="Path_239" data-name="Path 239" d="M367.846,594.2l-9.546,6.166,13.566,9.47,9.82-5.968Z" transform="translate(-358.3 -565.344)" fill="#7c5508"/>
          <g id="Group_93" data-name="Group 93" transform="translate(8.587)">
            <g id="Group_91" data-name="Group 91" transform="translate(0 0.889)">
              <path id="Path_240" data-name="Path 240" d="M406.972,582.324s-14.753-8.977-14.89-9.125c-.137-.1-14.982,8.681-14.982,8.681l14.936,9.372Z" transform="translate(-377.1 -555.59)" fill="#a2acbc"/>
              <path id="Path_241" data-name="Path 241" d="M424.773,545.491l-.091,18.743-14.936,8.977-.046-16.82.137-18.891Z" transform="translate(-394.81 -537.5)" fill="#4f5359"/>
              <path id="Path_242" data-name="Path 242" d="M392.036,600.272,377.1,590.9v2.022l14.8,9.273,15.073-8.878v-2.022Z" transform="translate(-377.1 -564.561)" fill="#3e4249"/>
              <path id="Path_243" data-name="Path 243" d="M377.1,590.9v2.269l14.8,9.026.046-.049.046-1.924Z" transform="translate(-377.1 -564.561)" fill="#454b54"/>
            </g>
            <path id="Path_244" data-name="Path 244" d="M377.191,552.9l-.091,18.99,14.936,9.125V564.146l.046-1.924Z" transform="translate(-377.1 -544.415)" fill="#a2acbc"/>
            <g id="Group_92" data-name="Group 92" transform="translate(0.091)">
              <path id="Path_245" data-name="Path 245" d="M407.172,544.578s-14.708-8.78-14.89-8.878-14.982,8.484-14.982,8.484l14.89,9.322Z" transform="translate(-377.3 -535.698)" fill="#a2acbc"/>
              <path id="Path_246" data-name="Path 246" d="M407.874,546.452s-11.693-6.955-11.784-7.053-12.789,6.609-12.789,6.609l11.784,7.4Z" transform="translate(-380.559 -537.573)" fill="#70767f"/>
              <path id="Path_247" data-name="Path 247" d="M406.632,547.143l1.142-.691s-11.693-6.955-11.784-7.053-12.789,6.609-12.789,6.609l.959.592c6.943-4.193,11.556-6.018,11.647-5.919S403.846,545.515,406.632,547.143Z" transform="translate(-380.505 -537.573)" fill="#3e4249"/>
              <path id="Path_248" data-name="Path 248" d="M392.19,562.222,377.3,552.9v2.022l14.8,9.273,15.073-8.878v-2.022Z" transform="translate(-377.3 -544.415)" fill="#70767f"/>
              <path id="Path_249" data-name="Path 249" d="M392.19,562.122h0L377.3,552.8v2.022l14.8,9.273.091-.049Z" transform="translate(-377.3 -544.365)" fill="#454b54"/>
            </g>
          </g>
          <path id="Path_250" data-name="Path 250" d="M379.6,562.6v.986l12.013,7.152v-1.085Z" transform="translate(-369.871 -549.331)" fill="#3e4249"/>
          <path id="Path_251" data-name="Path 251" d="M379.6,567.5v.986l12.013,7.152v-1.085Z" transform="translate(-369.871 -551.814)" fill="#3e4249"/>
          <path id="Path_252" data-name="Path 252" d="M379.6,572.5v.986l12.013,7.152v-1.085Z" transform="translate(-369.871 -554.348)" fill="#3e4249"/>
          <path id="Path_253" data-name="Path 253" d="M379.6,577.5v.986l12.013,7.152v-1.085Z" transform="translate(-369.871 -556.882)" fill="#3e4249"/>
          <path id="Path_254" data-name="Path 254" d="M379.6,582.4v.987l12.013,7.152V589.5Z" transform="translate(-369.871 -559.365)" fill="#3e4249"/>
          <path id="Path_255" data-name="Path 255" d="M379.6,587.4v.987l12.013,7.152v-1.085Z" transform="translate(-369.871 -561.898)" fill="#3e4249"/>
        </g>
        <path id="Path_256" data-name="Path 256" d="M525.04,520.618a3.788,3.788,0,0,0-4.385-.3,4.6,4.6,0,0,0-2.055,4v7.695a.825.825,0,0,0,.411.74h0a.8.8,0,0,0,1.188-.74v-7.695a2.724,2.724,0,0,1,1.279-2.417,2.2,2.2,0,0,1,2.329.049,2.85,2.85,0,0,1,1.233,2.417v9.421c.548.3,1.1.641,1.6.937V524.366A4.694,4.694,0,0,0,525.04,520.618Z" transform="translate(-426.015 -515.468)" fill="#70767f"/>
        <g id="Group_95" data-name="Group 95" transform="translate(3.974 69.533)">
          <path id="Path_257" data-name="Path 257" d="M333,655.271l-5.116-2.959a2.243,2.243,0,0,0-3.289,2.121v1.776a2.529,2.529,0,0,0,1.142,2.121c1.6.937,3.471,2.072,5.116,3.058a2.245,2.245,0,0,0,3.334-2.121v-1.874A2.465,2.465,0,0,0,333,655.271Z" transform="translate(-324.6 -652.03)" fill="#c6a258"/>
          <path id="Path_258" data-name="Path 258" d="M364.2,661.371l-5.116-2.959a2.243,2.243,0,0,0-3.289,2.121v1.776a2.529,2.529,0,0,0,1.142,2.121c1.6.937,3.471,2.072,5.116,3.058a2.245,2.245,0,0,0,3.334-2.121v-1.874A2.465,2.465,0,0,0,364.2,661.371Z" transform="translate(-341.549 -655.121)" fill="#c6a258"/>
          <path id="Path_259" data-name="Path 259" d="M391.7,685.071l-5.116-2.959a2.243,2.243,0,0,0-3.289,2.121v1.776a2.528,2.528,0,0,0,1.142,2.121c1.6.937,3.471,2.072,5.116,3.058a2.245,2.245,0,0,0,3.334-2.121v-1.874A2.465,2.465,0,0,0,391.7,685.071Z" transform="translate(-356.488 -667.132)" fill="#c6a258"/>
          <path id="Path_260" data-name="Path 260" d="M424.9,691.671l-5.116-2.959a2.243,2.243,0,0,0-3.289,2.121v1.776a2.529,2.529,0,0,0,1.142,2.121c1.6.937,3.471,2.072,5.116,3.058a2.245,2.245,0,0,0,3.334-2.121v-1.874A2.465,2.465,0,0,0,424.9,691.671Z" transform="translate(-374.524 -670.476)" fill="#c6a258"/>
          <path id="Path_261" data-name="Path 261" d="M448.4,714.171l-5.116-2.959A2.243,2.243,0,0,0,440,713.332v1.776a2.529,2.529,0,0,0,1.142,2.121c1.6.937,3.471,2.072,5.116,3.058a2.245,2.245,0,0,0,3.334-2.121v-1.874A2.465,2.465,0,0,0,448.4,714.171Z" transform="translate(-387.29 -681.878)" fill="#c6a258"/>
        </g>
        <g id="Group_96" data-name="Group 96" transform="translate(2.558 133.063)">
          <path id="Path_262" data-name="Path 262" d="M329.9,784.071l-5.116-2.959a2.243,2.243,0,0,0-3.289,2.121v1.776a2.528,2.528,0,0,0,1.142,2.121c1.6.937,3.471,2.072,5.116,3.058a2.245,2.245,0,0,0,3.334-2.121v-1.874A2.465,2.465,0,0,0,329.9,784.071Z" transform="translate(-321.5 -780.83)" fill="#c6a258"/>
          <path id="Path_263" data-name="Path 263" d="M361.1,790.171l-5.116-2.959a2.243,2.243,0,0,0-3.289,2.121v1.776a2.528,2.528,0,0,0,1.142,2.121c1.6.937,3.471,2.072,5.116,3.058a2.245,2.245,0,0,0,3.334-2.121v-1.874A2.465,2.465,0,0,0,361.1,790.171Z" transform="translate(-338.449 -783.921)" fill="#c6a258"/>
          <path id="Path_264" data-name="Path 264" d="M388.7,813.871l-5.116-2.959a2.243,2.243,0,0,0-3.289,2.121v1.776a2.529,2.529,0,0,0,1.142,2.121c1.6.937,3.471,2.072,5.116,3.058a2.245,2.245,0,0,0,3.334-2.121v-1.874A2.64,2.64,0,0,0,388.7,813.871Z" transform="translate(-353.443 -795.932)" fill="#c6a258"/>
          <path id="Path_265" data-name="Path 265" d="M421.8,820.471l-5.116-2.959a2.243,2.243,0,0,0-3.289,2.121v1.776a2.529,2.529,0,0,0,1.142,2.121c1.6.937,3.471,2.072,5.116,3.058a2.245,2.245,0,0,0,3.334-2.121v-1.874A2.465,2.465,0,0,0,421.8,820.471Z" transform="translate(-371.424 -799.276)" fill="#c6a258"/>
          <path id="Path_266" data-name="Path 266" d="M445.3,842.971l-5.116-2.959a2.243,2.243,0,0,0-3.289,2.121v1.776a2.529,2.529,0,0,0,1.142,2.121c1.6.937,3.471,2.072,5.116,3.058a2.245,2.245,0,0,0,3.334-2.121v-1.874A2.465,2.465,0,0,0,445.3,842.971Z" transform="translate(-384.19 -810.678)" fill="#c6a258"/>
        </g>
      </g>
    </g>
    <path id="Path_267" data-name="Path 267" d="M504.287,770.88l-1.1-1.48L475.1,784.493v1.48" transform="translate(-388.27 -641.975)" fill="#6b3d44"/>
    <path id="Path_268" data-name="Path 268" d="M475.3,648.533l29.1,38.276,72.99-47.056L548.016,603.5Z" transform="translate(-388.379 -557.904)" fill="#ec5946"/>
    <path id="Path_269" data-name="Path 269" d="M537,653.52l29.6,37.191,9.227-5.968L546.364,647.7Z" transform="translate(-421.897 -580.303)" fill="#ec5946"/>
    <path id="Path_270" data-name="Path 270" d="M496,677.02l29.826,37.487,9.272-5.919L505.364,671.2Z" transform="translate(-399.624 -592.211)" fill="#ec5946"/>
    <path id="Path_271" data-name="Path 271" d="M577.4,630.523l29.37,36.895,8.953-5.771L586.49,624.9Z" transform="translate(-443.844 -568.749)" fill="#ec5946"/>
    <path id="Path_272" data-name="Path 272" d="M654.472,639.753,625.1,603.5l-7.9,4.932,29.1,36.6Z" transform="translate(-465.465 -557.904)" fill="#ec5946"/>
    <g id="Group_99" data-name="Group 99" transform="translate(96.376 45.596)">
      <path id="Path_273" data-name="Path 273" d="M537,653.52l29.6,37.191,9.227-5.968L546.364,647.7Z" transform="translate(-518.273 -625.899)" fill="#fff"/>
      <path id="Path_274" data-name="Path 274" d="M496,677.02l29.826,37.487,9.272-5.919L505.364,671.2Z" transform="translate(-496 -637.807)" fill="#fff"/>
      <path id="Path_275" data-name="Path 275" d="M577.4,630.523l29.37,36.895,8.953-5.771L586.49,624.9Z" transform="translate(-540.22 -614.345)" fill="#fff"/>
      <path id="Path_276" data-name="Path 276" d="M589.305,717.316l9.227-5.968L589.671,700.2a77.994,77.994,0,0,1-10.871,3.946Z" transform="translate(-540.98 -652.503)" fill="#e2eaf7"/>
      <path id="Path_277" data-name="Path 277" d="M521.3,712.5l18.27,22.985,9.227-5.968-13.383-16.869a55.558,55.558,0,0,1-7.034.3A57.392,57.392,0,0,1,521.3,712.5Z" transform="translate(-509.744 -658.736)" fill="#e2eaf7"/>
      <path id="Path_278" data-name="Path 278" d="M630.782,674.3a10.761,10.761,0,0,1-.639.888,27.973,27.973,0,0,1-6.943,6.659l8.4,10.555,8.953-5.771Z" transform="translate(-565.1 -639.378)" fill="#e2eaf7"/>
      <path id="Path_279" data-name="Path 279" d="M654.472,639.753,625.1,603.5l-7.9,4.932,29.1,36.6Z" transform="translate(-561.841 -603.5)" fill="#fff"/>
      <path id="Path_280" data-name="Path 280" d="M649.583,621a60.528,60.528,0,0,1,.457,6.461,45.717,45.717,0,0,1-.639,8.286l14.388,18.1,4.933-3.157,3.243-2.072Z" transform="translate(-579.333 -612.368)" fill="#e2eaf7"/>
    </g>
    <g id="Group_100" data-name="Group 100" transform="translate(89.479 68.976)">
      <path id="Path_281" data-name="Path 281" d="M644.185,650.9a30.7,30.7,0,0,1-4.385,11.542l9.82,12.331,13.885-8.977-4.933,3.157Z" transform="translate(-567.221 -650.9)" fill="#bf3d34"/>
      <path id="Path_282" data-name="Path 282" d="M538.771,693.742c-.731.345-1.507.691-2.284,1.036l8.861,11.147-9.227,5.968-10.46-13.17a67.828,67.828,0,0,1-12.15,2.269L526.9,717.861l-9.272,5.919L499.353,700.8a60.806,60.806,0,0,1-18.453-5.327l26.538,34.823L554.3,700.055,545.9,689.5A42.5,42.5,0,0,1,538.771,693.742Z" transform="translate(-480.9 -670.461)" fill="#bf3d34"/>
    </g>
  </g>
</svg>
