<svg xmlns="http://www.w3.org/2000/svg" xmlns:xlink="http://www.w3.org/1999/xlink" width="650.371" height="459.859" viewBox="0 0 650.371 459.859">
  <defs>
    <clipPath id="clip-path">
      <path id="Path_66" data-name="Path 66" d="M0-595.276H650.371v459.859H0Z" transform="translate(70 595.276)"/>
    </clipPath>
  </defs>
  <g id="Group_12" data-name="Group 12" transform="translate(-70)" clip-path="url(#clip-path)">
    <path id="Path_54" data-name="Path 54" d="M-14.321-2.636a8.951,8.951,0,0,0-8.95-8.95H-37.194A25.758,25.758,0,0,0-62.952,14.172V33.415A8.951,8.951,0,0,0-54,42.366a8.95,8.95,0,0,0,8.95-8.95V14.072a7.757,7.757,0,0,1,7.757-7.758h14.023a8.95,8.95,0,0,0,8.95-8.95" transform="translate(343.723 316.966)" fill="#1d99cf"/>
    <path id="Path_55" data-name="Path 55" d="M0-2.1V30.89a7.125,7.125,0,0,0,7.126,7.125h3.65A7.125,7.125,0,0,0,17.9,30.89V-2.1a7.125,7.125,0,0,0-7.126-7.126H7.126A7.126,7.126,0,0,0,0-2.1" transform="translate(333.977 320.769)" fill="#1d99cf"/>
    <path id="Path_56" data-name="Path 56" d="M0-13.588A25.562,25.562,0,0,0,25.562,11.974h3.627a8.95,8.95,0,0,0,8.95-9.093,9.162,9.162,0,0,0-9.272-8.807H25.634A7.733,7.733,0,0,1,17.9-13.66V-23.5a.027.027,0,0,1,.027-.026H28.867a9.162,9.162,0,0,0,9.272-8.807,8.95,8.95,0,0,0-8.95-9.093H17.928a.027.027,0,0,1-.027-.026v-9a9.162,9.162,0,0,0-8.807-9.272A8.952,8.952,0,0,0,0-50.78" transform="translate(239.102 346.861)" fill="#1d99cf"/>
    <path id="Path_57" data-name="Path 57" d="M-5.264-2.632A8.938,8.938,0,0,1-14.2,6.306a8.938,8.938,0,0,1-8.939-8.938A8.939,8.939,0,0,1-14.2-11.57,8.938,8.938,0,0,1-5.264-2.632" transform="translate(356.72 298.378)" fill="#1d99cf"/>
    <path id="Path_58" data-name="Path 58" d="M-7.892-10.572H-15.1A2.088,2.088,0,0,1-17.19-12.66v-7.211a9.3,9.3,0,0,1,9.3-9.3,9.3,9.3,0,0,1,9.3,9.3,9.3,9.3,0,0,1-9.3,9.3m1.243-35.9H-9.931A24.763,24.763,0,0,0-34.694-21.711v37a8.951,8.951,0,0,0,8.95,8.95,8.951,8.951,0,0,0,8.951-8.95V6.335H-6.649A24.764,24.764,0,0,0,18.114-18.429v-3.282A24.764,24.764,0,0,0-6.649-46.474" transform="translate(390.65 352.45)" fill="#1d99cf"/>
    <path id="Path_59" data-name="Path 59" d="M-14.321-2.636a8.951,8.951,0,0,0-8.95-8.95H-37.194A25.758,25.758,0,0,0-62.952,14.172V33.415A8.951,8.951,0,0,0-54,42.366a8.951,8.951,0,0,0,8.95-8.951V14.072a7.757,7.757,0,0,1,7.758-7.757h14.023a8.951,8.951,0,0,0,8.95-8.951" transform="translate(344.854 234.509)" fill="#1d99cf"/>
    <path id="Path_60" data-name="Path 60" d="M0-2.1V30.89a7.125,7.125,0,0,0,7.125,7.125h3.651A7.125,7.125,0,0,0,17.9,30.89V-2.1a7.125,7.125,0,0,0-7.125-7.126H7.125A7.125,7.125,0,0,0,0-2.1" transform="translate(334.71 238.313)" fill="#1d99cf"/>
    <path id="Path_61" data-name="Path 61" d="M-5.264-2.632A8.938,8.938,0,0,1-14.2,6.306,8.938,8.938,0,0,1-23.14-2.632,8.938,8.938,0,0,1-14.2-11.57,8.938,8.938,0,0,1-5.264-2.632" transform="translate(357.862 215.921)" fill="#1d99cf"/>
    <path id="Path_62" data-name="Path 62" d="M-10.572-9.781A2.088,2.088,0,0,1-12.66-7.693h-7.21a9.3,9.3,0,0,1-9.3-9.3,9.3,9.3,0,0,1,9.3-9.3,9.3,9.3,0,0,1,9.3,9.3ZM-18.428-43H-21.71A24.764,24.764,0,0,0-46.474-18.234v3.282A24.763,24.763,0,0,0-21.71,9.81H-2.317A8.652,8.652,0,0,0,6.335,1.158V-18.234A24.764,24.764,0,0,0-18.428-43" transform="translate(499.629 266.518)" fill="#1d99cf"/>
    <path id="Path_63" data-name="Path 63" d="M0,0H0Z" transform="translate(314.336 222.924)" fill="#1d99cf"/>
    <path id="Path_64" data-name="Path 64" d="M0,0H0Z" transform="translate(351.679 222.924)" fill="#1d99cf"/>
    <path id="Path_65" data-name="Path 65" d="M-17.5-.018C-23.5.2-28.517,2.263-32.288,6.714-36.215,2.337-41.914.36-48.792-.018h0q-.937-.059-1.9-.063a26.3,26.3,0,0,0-26.248,26.3v17.9a9.11,9.11,0,0,0,7.482,9.085A8.956,8.956,0,0,0-59.04,44.373V25.825a8.006,8.006,0,0,1,8.006-8.006h2.229a7.815,7.815,0,0,1,7.816,7.815V44.122a9.11,9.11,0,0,0,7.482,9.085,8.957,8.957,0,0,0,10.42-8.834V26.049a8.229,8.229,0,0,1,8.23-8.229h1.815a8.006,8.006,0,0,1,8.006,8.006V44.373A8.956,8.956,0,0,0,5.381,53.206a9.11,9.11,0,0,0,7.482-9.085v-17.9A26.3,26.3,0,0,0-13.386-.08" transform="translate(435.121 223.005)" fill="#1d99cf"/>
  </g>
</svg>
