<svg id="Office" xmlns="http://www.w3.org/2000/svg" width="189.778" height="201.971" viewBox="0 0 189.778 201.971">
  <path id="Path_1" data-name="Path 1" d="M406.478,280.64S358.814,255.7,358.456,255.4,216.7,340.366,216.7,340.366l48.022,26.359Z" transform="translate(-216.7 -164.754)" fill="#afafaf"/>
  <g id="Group_46" data-name="Group 46" transform="translate(24.011)">
    <g id="Group_3" data-name="Group 3" transform="translate(0 56.717)">
      <g id="Group_1" data-name="Group 1" transform="translate(0 5.462)">
        <path id="Path_2" data-name="Path 2" d="M417.6,323.4s-105.879,25.026-106.2,24.768-34.2,19.866-34.2,19.866l34.125,21.457Z" transform="translate(-277.12 -265.694)" fill="#a2acbc"/>
        <path id="Path_3" data-name="Path 3" d="M469.136,207.475l-.2,42.871L362.619,316.436l-.119-46.182L434.971,189.2Z" transform="translate(-328.455 -189.2)" fill="#c3cfe2"/>
        <path id="Path_4" data-name="Path 4" d="M311.165,389.534,277.04,368.077l-.04,4.644,33.846,21.156,106.6-65.833.04-4.644Z" transform="translate(-277 -265.694)" fill="#454f5e"/>
        <path id="Path_5" data-name="Path 5" d="M277.04,427.3l-.04,5.16,33.846,20.64.159-.129.04-4.386Z" transform="translate(-277 -324.918)" fill="#454f5e"/>
      </g>
      <path id="Path_6" data-name="Path 6" d="M277.339,327.5l-.239,43.516,34.125,20.855.08-38.657.04-4.386Z" transform="translate(-277.06 -262.57)" fill="#a2acbc"/>
      <g id="Group_2" data-name="Group 2" transform="translate(0.199)">
        <path id="Path_7" data-name="Path 7" d="M418.042,196.795s-33.687-20.038-34.006-20.3S277.6,241.429,277.6,241.429l34.005,21.328Z" transform="translate(-277.56 -176.498)" fill="#a2acbc"/>
        <path id="Path_8" data-name="Path 8" d="M311.645,289.662,277.64,268.334l-.04,4.644,33.806,21.2,106.635-65.833V223.7Z" transform="translate(-277.56 -203.403)" fill="#70767f"/>
        <path id="Path_9" data-name="Path 9" d="M311.625,348.785l-.08.043L277.54,327.5l-.04,4.644L311.306,353.3l.279-.172C311.625,351.838,311.625,350.333,311.625,348.785Z" transform="translate(-277.5 -262.57)" fill="#454b54"/>
      </g>
    </g>
    <g id="Group_6" data-name="Group 6" transform="translate(0.279 9.59)">
      <g id="Group_4" data-name="Group 4" transform="translate(0 2.022)">
        <path id="Path_10" data-name="Path 10" d="M418.2,213.8S312.323,238.826,312,238.568s-34.2,19.866-34.2,19.866l34.125,21.457Z" transform="translate(-277.76 -152.654)" fill="#a2acbc"/>
        <path id="Path_11" data-name="Path 11" d="M469.8,89.875l-.2,42.871L363.28,198.836l-.08-38.528L435.631,71.6Z" transform="translate(-329.155 -71.6)" fill="#c3cfe2"/>
        <path id="Path_12" data-name="Path 12" d="M311.825,279.891,277.7,258.434v4.644l33.806,21.2,106.6-65.833.04-4.644Z" transform="translate(-277.7 -152.654)" fill="#454f5e"/>
        <path id="Path_13" data-name="Path 13" d="M277.7,317.6v5.2l33.806,20.64.159-.129.04-4.386Z" transform="translate(-277.7 -211.821)" fill="#454f5e"/>
      </g>
      <path id="Path_14" data-name="Path 14" d="M277.939,217.9l-.239,43.516,34.125,20.812.08-38.614.04-4.386Z" transform="translate(-277.7 -152.97)" fill="#a2acbc"/>
      <g id="Group_5" data-name="Group 5" transform="translate(0.159)">
        <path id="Path_15" data-name="Path 15" d="M418.642,87.195s-33.687-20.038-34.006-20.3S278.2,131.829,278.2,131.829l34.005,21.328Z" transform="translate(-278.16 -66.898)" fill="#a2acbc"/>
        <path id="Path_16" data-name="Path 16" d="M422.2,92.781S395.518,76.914,395.24,76.7C395,76.484,293.9,137.415,293.9,137.415l26.958,16.9Z" transform="translate(-287.609 -72.485)" fill="#70767f"/>
        <path id="Path_17" data-name="Path 17" d="M494.144,116.7,477.5,126.8l16.167,9.417,16.047-10.062,4.738-5.934Z" transform="translate(-398.101 -95.285)" fill="#53565b"/>
        <path id="Path_18" data-name="Path 18" d="M419.629,94.372l2.668-1.591S395.618,76.914,395.34,76.7C395.1,76.484,294,137.415,294,137.415l2.15,1.333c15.808-9.546,98.512-59.34,98.751-59.168C395.061,79.8,413.218,90.588,419.629,94.372Z" transform="translate(-287.669 -72.485)" fill="#3e4249"/>
        <path id="Path_19" data-name="Path 19" d="M312.245,180.062,278.24,158.734l-.04,4.644,33.846,21.156,106.6-65.79V114.1Z" transform="translate(-278.16 -93.803)" fill="#70767f"/>
        <path id="Path_20" data-name="Path 20" d="M312.225,239.185l-.08.043L278.14,217.9l-.04,4.644L311.906,243.7l.279-.172C312.225,242.238,312.225,240.69,312.225,239.185Z" transform="translate(-278.1 -152.97)" fill="#454b54"/>
      </g>
    </g>
    <g id="Group_9" data-name="Group 9" transform="translate(96.243)">
      <g id="Group_7" data-name="Group 7" transform="translate(0 0.947)">
        <path id="Path_21" data-name="Path 21" d="M550.177,99.487s-15.529-9.46-15.649-9.589c-.159-.129-15.729,9.116-15.729,9.116l15.689,9.847Z" transform="translate(-518.76 -71.365)" fill="#a2acbc"/>
        <path id="Path_22" data-name="Path 22" d="M573.848,55.185l-.08,19.737L558.04,84.339,558,66.623l.159-19.823Z" transform="translate(-542.351 -46.8)" fill="#c3cfe2"/>
        <path id="Path_23" data-name="Path 23" d="M534.389,120.99,518.7,111.1v2.15l15.529,9.718,15.848-9.288.04-2.107Z" transform="translate(-518.7 -83.451)" fill="#454f5e"/>
        <path id="Path_24" data-name="Path 24" d="M518.7,111.1v2.408l15.529,9.46.119-.043V120.9Z" transform="translate(-518.7 -83.451)" fill="#454f5e"/>
      </g>
      <path id="Path_25" data-name="Path 25" d="M518.819,65.3,518.7,85.295l15.689,9.589.04-17.759V75.1Z" transform="translate(-518.7 -56.398)" fill="#a2acbc"/>
      <g id="Group_8" data-name="Group 8" transform="translate(0.119)">
        <path id="Path_26" data-name="Path 26" d="M550.377,53.929s-15.49-9.2-15.609-9.331C534.609,44.469,519,53.5,519,53.5l15.609,9.8Z" transform="translate(-519 -44.597)" fill="#a2acbc"/>
        <path id="Path_27" data-name="Path 27" d="M552,56.495s-12.264-7.31-12.384-7.4S526.2,56.065,526.2,56.065l12.384,7.783Z" transform="translate(-523.333 -47.163)" fill="#70767f"/>
        <path id="Path_28" data-name="Path 28" d="M550.868,57.326l1.234-.731s-12.264-7.31-12.384-7.4S526.3,56.165,526.3,56.165l1,.6c7.287-4.386,12.105-6.321,12.224-6.235C539.56,50.618,547.922,55.563,550.868,57.326Z" transform="translate(-523.393 -47.22)" fill="#3e4249"/>
        <path id="Path_29" data-name="Path 29" d="M534.609,75.1,519,65.3v2.15l15.529,9.718,15.848-9.288V65.73Z" transform="translate(-519 -56.398)" fill="#70767f"/>
        <path id="Path_30" data-name="Path 30" d="M534.649,75.1h0L519,65.3v2.15l15.529,9.718.119-.086Z" transform="translate(-519 -56.398)" fill="#454b54"/>
      </g>
    </g>
    <path id="Path_31" data-name="Path 31" d="M527.8,104.585V91.9l7.327,4.386v12.9Z" transform="translate(-427.934 -71.56)" fill="#454b54"/>
    <path id="Path_32" data-name="Path 32" d="M535.127,96.286,527.8,91.9v.645l6.929,4.171v12.212l.4.258Z" transform="translate(-427.934 -71.56)" fill="#25282d"/>
    <ellipse id="Ellipse_1" data-name="Ellipse 1" cx="0.319" cy="0.344" rx="0.319" ry="0.344" transform="translate(105.122 30.918)" fill="#25282d"/>
    <g id="Group_14" data-name="Group 14" transform="translate(41.691 84.109)">
      <g id="Group_11" data-name="Group 11" transform="translate(0 8.6)">
        <g id="Group_10" data-name="Group 10" transform="translate(0.995 1.806)">
          <path id="Path_33" data-name="Path 33" d="M384.2,297.252l9.278-5.375V264.4l-9.278,5.332Z" transform="translate(-384.2 -264.4)" fill="#25282d"/>
          <path id="Path_34" data-name="Path 34" d="M393.478,264.4l-9.278,5.332v12.341c1.951-1.29,6.411-3.913,9.278-5.59Z" transform="translate(-384.2 -264.4)" fill="#626d7c"/>
          <path id="Path_35" data-name="Path 35" d="M393.7,267.7l-4.221,14.663-1.075,1.161,4.181-15.308Z" transform="translate(-386.728 -266.281)" fill="#76879b"/>
        </g>
        <path id="Path_36" data-name="Path 36" d="M399.5,264.1l-4.221,14.706-1.075,1.161,4.181-15.351Z" transform="translate(-389.223 -262.423)" fill="#76879b"/>
        <path id="Path_37" data-name="Path 37" d="M381.7,266.693v29.928l11.269-6.493V260.2Zm10.273,22.79-9.278,5.332v-27.52l9.278-5.332Z" transform="translate(-381.7 -260.2)" fill="#fdfeff"/>
        <path id="Path_38" data-name="Path 38" d="M382.8,297.335l10.512-6.235v1.462L382.8,298.8Z" transform="translate(-382.362 -277.813)" fill="#fdfeff"/>
      </g>
      <g id="Group_13" data-name="Group 13" transform="translate(14.574)">
        <g id="Group_12" data-name="Group 12" transform="translate(0.995 1.763)">
          <path id="Path_39" data-name="Path 39" d="M420.8,277.152l9.278-5.332V244.3l-9.278,5.375Z" transform="translate(-420.8 -244.3)" fill="#25282d"/>
          <path id="Path_40" data-name="Path 40" d="M430.078,244.3l-9.278,5.332v12.341c1.951-1.29,6.411-3.913,9.278-5.59Z" transform="translate(-420.8 -244.3)" fill="#626d7c"/>
          <path id="Path_41" data-name="Path 41" d="M430.336,247.7l-4.261,14.663L425,263.524l4.181-15.308Z" transform="translate(-423.328 -246.238)" fill="#76879b"/>
        </g>
        <path id="Path_42" data-name="Path 42" d="M436.1,244.1l-4.221,14.663-1.075,1.161,4.181-15.308Z" transform="translate(-425.823 -242.423)" fill="#76879b"/>
        <path id="Path_43" data-name="Path 43" d="M418.3,246.693v29.928l11.269-6.493V240.2Zm10.273,22.79-9.278,5.332v-27.52l9.278-5.332Z" transform="translate(-418.3 -240.2)" fill="#fdfeff"/>
        <path id="Path_44" data-name="Path 44" d="M419.4,277.335l10.512-6.235v1.419L419.4,278.8Z" transform="translate(-418.962 -257.813)" fill="#fdfeff"/>
      </g>
    </g>
    <g id="Group_19" data-name="Group 19" transform="translate(4.46 87.162)">
      <g id="Group_16" data-name="Group 16" transform="translate(14.614 8.6)">
        <g id="Group_15" data-name="Group 15" transform="translate(0.995 1.806)">
          <path id="Path_45" data-name="Path 45" d="M336.638,304.352l-9.238-5.375V271.5l9.238,5.332Z" transform="translate(-327.4 -271.5)" fill="#25282d"/>
          <path id="Path_46" data-name="Path 46" d="M327.4,271.5l9.278,5.332v12.341c-1.951-1.29-6.411-3.913-9.278-5.59Z" transform="translate(-327.4 -271.5)" fill="#626d7c"/>
          <path id="Path_47" data-name="Path 47" d="M333.1,274.8l4.221,14.663,1.075,1.161-4.181-15.308Z" transform="translate(-330.83 -273.381)" fill="#76879b"/>
        </g>
        <path id="Path_48" data-name="Path 48" d="M327.4,271.2l4.221,14.663,1.075,1.161-4.181-15.308Z" transform="translate(-326.405 -269.523)" fill="#76879b"/>
        <path id="Path_49" data-name="Path 49" d="M324.9,267.3v29.928l11.269,6.493V273.793Zm1,1.806,9.278,5.332v27.52l-9.278-5.332Z" transform="translate(-324.9 -267.3)" fill="#fdfeff"/>
        <path id="Path_50" data-name="Path 50" d="M336.172,304.435,325.7,298.2v1.462l10.472,6.235Z" transform="translate(-325.381 -284.913)" fill="#fdfeff"/>
      </g>
      <g id="Group_18" data-name="Group 18">
        <g id="Group_17" data-name="Group 17" transform="translate(0.995 1.763)">
          <path id="Path_51" data-name="Path 51" d="M299.978,284.252,290.7,278.92V251.4l9.278,5.375Z" transform="translate(-290.7 -251.4)" fill="#25282d"/>
          <path id="Path_52" data-name="Path 52" d="M290.7,251.4l9.278,5.332v12.341c-1.951-1.29-6.411-3.913-9.278-5.59Z" transform="translate(-290.7 -251.4)" fill="#626d7c"/>
          <path id="Path_53" data-name="Path 53" d="M296.5,254.8l4.221,14.663,1.075,1.161-4.181-15.308Z" transform="translate(-294.19 -253.338)" fill="#76879b"/>
        </g>
        <path id="Path_54" data-name="Path 54" d="M290.7,251.2l4.261,14.663,1.075,1.161-4.181-15.308Z" transform="translate(-289.705 -249.523)" fill="#76879b"/>
        <path id="Path_55" data-name="Path 55" d="M288.2,247.3v29.928l11.269,6.493V253.793Zm1,1.763,9.278,5.332v27.52l-9.278-5.332Z" transform="translate(-288.2 -247.3)" fill="#fdfeff"/>
        <path id="Path_56" data-name="Path 56" d="M299.512,284.435,289,278.2v1.419l10.512,6.278Z" transform="translate(-288.681 -264.913)" fill="#fdfeff"/>
      </g>
    </g>
    <g id="Group_24" data-name="Group 24" transform="translate(77.687 62.179)">
      <g id="Group_21" data-name="Group 21" transform="translate(0 8.643)">
        <g id="Group_20" data-name="Group 20" transform="translate(0.995 1.763)">
          <path id="Path_57" data-name="Path 57" d="M474.6,246.252l9.278-5.332V213.4l-9.278,5.332Z" transform="translate(-474.6 -213.4)" fill="#25282d"/>
          <path id="Path_58" data-name="Path 58" d="M483.878,213.4l-9.278,5.332v12.341c1.951-1.29,6.411-3.913,9.278-5.59Z" transform="translate(-474.6 -213.4)" fill="#626d7c"/>
          <path id="Path_59" data-name="Path 59" d="M484.2,216.7l-4.221,14.706-1.075,1.161,4.181-15.351Z" transform="translate(-477.188 -215.281)" fill="#76879b"/>
        </g>
        <path id="Path_60" data-name="Path 60" d="M489.9,213.1l-4.221,14.706-1.075,1.161,4.181-15.351Z" transform="translate(-479.623 -211.466)" fill="#76879b"/>
        <path id="Path_61" data-name="Path 61" d="M472.1,215.75v29.971l11.269-6.493V209.3Zm10.273,22.833-9.278,5.332v-27.52l9.278-5.332Z" transform="translate(-472.1 -209.3)" fill="#fdfeff"/>
        <path id="Path_62" data-name="Path 62" d="M473.2,246.378l10.512-6.278v1.462L473.2,247.8Z" transform="translate(-472.762 -226.856)" fill="#fdfeff"/>
      </g>
      <g id="Group_23" data-name="Group 23" transform="translate(14.574)">
        <g id="Group_22" data-name="Group 22" transform="translate(0.995 1.806)">
          <path id="Path_63" data-name="Path 63" d="M511.2,226.252l9.278-5.375V193.4l-9.278,5.332Z" transform="translate(-511.2 -193.4)" fill="#25282d"/>
          <path id="Path_64" data-name="Path 64" d="M520.478,193.4l-9.278,5.332v12.341c1.951-1.29,6.411-3.913,9.278-5.59Z" transform="translate(-511.2 -193.4)" fill="#626d7c"/>
          <path id="Path_65" data-name="Path 65" d="M520.8,196.7l-4.221,14.663-1.075,1.161,4.181-15.308Z" transform="translate(-513.788 -195.281)" fill="#76879b"/>
        </g>
        <path id="Path_66" data-name="Path 66" d="M526.5,193.1l-4.221,14.663-1.075,1.161,4.181-15.308Z" transform="translate(-516.223 -191.423)" fill="#76879b"/>
        <path id="Path_67" data-name="Path 67" d="M508.7,195.693v29.928l11.269-6.493V189.2Zm10.273,22.79-9.278,5.332v-27.52l9.278-5.332Z" transform="translate(-508.7 -189.2)" fill="#fdfeff"/>
        <path id="Path_68" data-name="Path 68" d="M509.8,226.335l10.512-6.235v1.462L509.8,227.8Z" transform="translate(-509.362 -206.813)" fill="#fdfeff"/>
      </g>
    </g>
    <g id="Group_29" data-name="Group 29" transform="translate(111.892 40.593)">
      <g id="Group_26" data-name="Group 26" transform="translate(0 8.6)">
        <g id="Group_25" data-name="Group 25" transform="translate(0.995 1.806)">
          <path id="Path_69" data-name="Path 69" d="M560.5,196.052l9.278-5.332V163.2l-9.278,5.332Z" transform="translate(-560.5 -163.2)" fill="#25282d"/>
          <path id="Path_70" data-name="Path 70" d="M569.778,163.2l-9.278,5.332v12.341c1.951-1.29,6.411-3.913,9.278-5.59Z" transform="translate(-560.5 -163.2)" fill="#626d7c"/>
          <path id="Path_71" data-name="Path 71" d="M570,166.5l-4.221,14.706-1.075,1.161,4.181-15.351Z" transform="translate(-563.028 -165.081)" fill="#76879b"/>
        </g>
        <path id="Path_72" data-name="Path 72" d="M575.8,163l-4.221,14.663-1.075,1.161,4.181-15.351Z" transform="translate(-565.523 -161.28)" fill="#76879b"/>
        <path id="Path_73" data-name="Path 73" d="M558,165.493v29.928l11.269-6.493V159Zm10.273,22.833L559,193.658v-27.52l9.278-5.332Z" transform="translate(-558 -159)" fill="#fdfeff"/>
        <path id="Path_74" data-name="Path 74" d="M559.1,196.235,569.612,190v1.419L559.1,197.654Z" transform="translate(-558.662 -176.67)" fill="#fdfeff"/>
      </g>
      <g id="Group_28" data-name="Group 28" transform="translate(14.574)">
        <g id="Group_27" data-name="Group 27" transform="translate(0.995 1.806)">
          <path id="Path_75" data-name="Path 75" d="M597.1,176.052l9.278-5.375V143.2l-9.278,5.332Z" transform="translate(-597.1 -143.2)" fill="#25282d"/>
          <path id="Path_76" data-name="Path 76" d="M606.378,143.2l-9.278,5.332v12.341c1.951-1.29,6.411-3.913,9.278-5.59Z" transform="translate(-597.1 -143.2)" fill="#626d7c"/>
          <path id="Path_77" data-name="Path 77" d="M606.6,146.5l-4.221,14.663-1.075,1.161,4.181-15.308Z" transform="translate(-599.628 -145.081)" fill="#76879b"/>
        </g>
        <path id="Path_78" data-name="Path 78" d="M612.4,142.9l-4.221,14.663-1.075,1.161,4.181-15.308Z" transform="translate(-602.123 -141.223)" fill="#76879b"/>
        <path id="Path_79" data-name="Path 79" d="M594.6,145.493v29.928l11.269-6.493V139Zm10.273,22.79-9.278,5.332v-27.52l9.278-5.332Z" transform="translate(-594.6 -139)" fill="#fdfeff"/>
        <path id="Path_80" data-name="Path 80" d="M595.7,176.135l10.512-6.235v1.462L595.7,177.6Z" transform="translate(-595.262 -156.613)" fill="#fdfeff"/>
      </g>
    </g>
    <g id="Group_34" data-name="Group 34" transform="translate(41.691 131.795)">
      <g id="Group_31" data-name="Group 31" transform="translate(0 8.643)">
        <g id="Group_30" data-name="Group 30" transform="translate(0.995 1.806)">
          <path id="Path_81" data-name="Path 81" d="M384.2,408.209l9.278-5.332V375.4l-9.278,5.332Z" transform="translate(-384.2 -375.4)" fill="#25282d"/>
          <path id="Path_82" data-name="Path 82" d="M393.478,375.4l-9.278,5.332v12.341c1.951-1.29,6.411-3.913,9.278-5.59Z" transform="translate(-384.2 -375.4)" fill="#626d7c"/>
          <path id="Path_83" data-name="Path 83" d="M393.7,378.7l-4.221,14.663-1.075,1.161,4.181-15.308Z" transform="translate(-386.728 -377.281)" fill="#76879b"/>
        </g>
        <path id="Path_84" data-name="Path 84" d="M399.5,375.1l-4.221,14.663-1.075,1.161,4.181-15.308Z" transform="translate(-389.223 -373.423)" fill="#76879b"/>
        <path id="Path_85" data-name="Path 85" d="M381.7,377.693v29.928l11.269-6.493V371.2Zm10.273,22.79-9.278,5.332v-27.52l9.278-5.332Z" transform="translate(-381.7 -371.2)" fill="#fdfeff"/>
        <path id="Path_86" data-name="Path 86" d="M382.8,408.335l10.512-6.235v1.462L382.8,409.8Z" transform="translate(-382.362 -388.813)" fill="#fdfeff"/>
      </g>
      <g id="Group_33" data-name="Group 33" transform="translate(14.574)">
        <g id="Group_32" data-name="Group 32" transform="translate(0.995 1.806)">
          <path id="Path_87" data-name="Path 87" d="M420.8,388.152l9.278-5.332V355.3l-9.278,5.332Z" transform="translate(-420.8 -355.3)" fill="#25282d"/>
          <path id="Path_88" data-name="Path 88" d="M430.078,355.3l-9.278,5.332v12.341c1.951-1.29,6.411-3.913,9.278-5.59Z" transform="translate(-420.8 -355.3)" fill="#626d7c"/>
          <path id="Path_89" data-name="Path 89" d="M430.336,358.6l-4.261,14.706L425,374.467l4.181-15.351Z" transform="translate(-423.328 -357.181)" fill="#76879b"/>
        </g>
        <path id="Path_90" data-name="Path 90" d="M436.1,355.1l-4.221,14.663-1.075,1.161,4.181-15.351Z" transform="translate(-425.823 -353.38)" fill="#76879b"/>
        <path id="Path_91" data-name="Path 91" d="M418.3,357.593v29.928l11.269-6.493V351.1Zm10.273,22.833-9.278,5.332v-27.52l9.278-5.332Z" transform="translate(-418.3 -351.1)" fill="#fdfeff"/>
        <path id="Path_92" data-name="Path 92" d="M419.4,388.335l10.512-6.235v1.419L419.4,389.754Z" transform="translate(-418.962 -368.77)" fill="#fdfeff"/>
      </g>
    </g>
    <g id="Group_39" data-name="Group 39" transform="translate(77.687 109.909)">
      <g id="Group_36" data-name="Group 36" transform="translate(0 8.6)">
        <g id="Group_35" data-name="Group 35" transform="translate(0.995 1.806)">
          <path id="Path_93" data-name="Path 93" d="M474.6,357.252l9.278-5.375V324.4l-9.278,5.332Z" transform="translate(-474.6 -324.4)" fill="#25282d"/>
          <path id="Path_94" data-name="Path 94" d="M483.878,324.4l-9.278,5.332v12.341c1.951-1.29,6.411-3.913,9.278-5.59Z" transform="translate(-474.6 -324.4)" fill="#626d7c"/>
          <path id="Path_95" data-name="Path 95" d="M484.2,327.7l-4.221,14.663-1.075,1.161,4.181-15.308Z" transform="translate(-477.188 -326.281)" fill="#76879b"/>
        </g>
        <path id="Path_96" data-name="Path 96" d="M489.9,324.1l-4.221,14.663-1.075,1.161,4.181-15.308Z" transform="translate(-479.623 -322.423)" fill="#76879b"/>
        <path id="Path_97" data-name="Path 97" d="M472.1,326.693v29.928l11.269-6.493V320.2Zm10.273,22.79-9.278,5.332v-27.52l9.278-5.332Z" transform="translate(-472.1 -320.2)" fill="#fdfeff"/>
        <path id="Path_98" data-name="Path 98" d="M473.2,357.335l10.512-6.235v1.462L473.2,358.8Z" transform="translate(-472.762 -337.813)" fill="#fdfeff"/>
      </g>
      <g id="Group_38" data-name="Group 38" transform="translate(14.574)">
        <g id="Group_37" data-name="Group 37" transform="translate(0.995 1.763)">
          <path id="Path_99" data-name="Path 99" d="M511.2,337.152l9.278-5.332V304.3l-9.278,5.375Z" transform="translate(-511.2 -304.3)" fill="#25282d"/>
          <path id="Path_100" data-name="Path 100" d="M520.478,304.3l-9.278,5.332v12.341c1.951-1.29,6.411-3.913,9.278-5.59Z" transform="translate(-511.2 -304.3)" fill="#626d7c"/>
          <path id="Path_101" data-name="Path 101" d="M520.8,307.7l-4.221,14.663-1.075,1.161,4.181-15.308Z" transform="translate(-513.788 -306.238)" fill="#76879b"/>
        </g>
        <path id="Path_102" data-name="Path 102" d="M526.5,304.1l-4.221,14.663-1.075,1.161,4.181-15.308Z" transform="translate(-516.223 -302.423)" fill="#76879b"/>
        <path id="Path_103" data-name="Path 103" d="M508.7,306.693v29.928l11.269-6.493V300.2Zm10.273,22.79-9.278,5.332v-27.52l9.278-5.332Z" transform="translate(-508.7 -300.2)" fill="#fdfeff"/>
        <path id="Path_104" data-name="Path 104" d="M509.8,337.335l10.512-6.235v1.419L509.8,338.754Z" transform="translate(-509.362 -317.813)" fill="#fdfeff"/>
      </g>
    </g>
    <g id="Group_44" data-name="Group 44" transform="translate(111.892 88.323)">
      <g id="Group_41" data-name="Group 41" transform="translate(0 8.6)">
        <g id="Group_40" data-name="Group 40" transform="translate(0.995 1.806)">
          <path id="Path_105" data-name="Path 105" d="M560.5,307.052l9.278-5.375V274.2l-9.278,5.332Z" transform="translate(-560.5 -274.2)" fill="#25282d"/>
          <path id="Path_106" data-name="Path 106" d="M569.778,274.2l-9.278,5.332v12.341c1.951-1.29,6.411-3.913,9.278-5.59Z" transform="translate(-560.5 -274.2)" fill="#626d7c"/>
          <path id="Path_107" data-name="Path 107" d="M570,277.5l-4.221,14.663-1.075,1.161,4.181-15.308Z" transform="translate(-563.028 -276.081)" fill="#76879b"/>
        </g>
        <path id="Path_108" data-name="Path 108" d="M575.8,273.9l-4.221,14.706-1.075,1.161,4.181-15.351Z" transform="translate(-565.523 -272.223)" fill="#76879b"/>
        <path id="Path_109" data-name="Path 109" d="M558,276.493v29.928l11.269-6.493V270Zm10.273,22.79L559,304.615v-27.52l9.278-5.332Z" transform="translate(-558 -270)" fill="#fdfeff"/>
        <path id="Path_110" data-name="Path 110" d="M559.1,307.135l10.512-6.235v1.462L559.1,308.6Z" transform="translate(-558.662 -287.613)" fill="#fdfeff"/>
      </g>
      <g id="Group_43" data-name="Group 43" transform="translate(14.574)">
        <g id="Group_42" data-name="Group 42" transform="translate(0.995 1.763)">
          <path id="Path_111" data-name="Path 111" d="M597.1,286.952l9.278-5.332V254.1l-9.278,5.375Z" transform="translate(-597.1 -254.1)" fill="#25282d"/>
          <path id="Path_112" data-name="Path 112" d="M606.378,254.1l-9.278,5.332v12.341c1.951-1.29,6.411-3.913,9.278-5.59Z" transform="translate(-597.1 -254.1)" fill="#626d7c"/>
          <path id="Path_113" data-name="Path 113" d="M606.6,257.5l-4.221,14.663-1.075,1.161,4.181-15.308Z" transform="translate(-599.628 -256.038)" fill="#76879b"/>
        </g>
        <path id="Path_114" data-name="Path 114" d="M612.4,253.9l-4.221,14.663-1.075,1.161,4.181-15.308Z" transform="translate(-602.123 -252.223)" fill="#76879b"/>
        <path id="Path_115" data-name="Path 115" d="M594.6,256.493v29.928l11.269-6.493V250Zm10.273,22.79-9.278,5.332v-27.52l9.278-5.332Z" transform="translate(-594.6 -250)" fill="#fdfeff"/>
        <path id="Path_116" data-name="Path 116" d="M595.7,287.135l10.512-6.235v1.419L595.7,288.6Z" transform="translate(-595.262 -267.613)" fill="#fdfeff"/>
      </g>
    </g>
    <g id="Group_45" data-name="Group 45" transform="translate(9.995 153.725)">
      <path id="Path_117" data-name="Path 117" d="M302.1,424.03V402.1l7.287,4.386v22.145Z" transform="translate(-302.1 -402.1)" fill="#454b54"/>
      <path id="Path_118" data-name="Path 118" d="M309.387,406.486,302.1,402.1v.688l6.929,4.171v21.414l.358.258Z" transform="translate(-302.1 -402.1)" fill="#25282d"/>
      <ellipse id="Ellipse_2" data-name="Ellipse 2" cx="0.757" cy="0.817" rx="0.757" ry="0.817" transform="translate(4.141 15.824)" fill="#25282d"/>
    </g>
  </g>
</svg>
