<svg xmlns="http://www.w3.org/2000/svg" width="159.018" height="200.1" viewBox="0 0 159.018 200.1">
  <g id="Residential" transform="translate(0)">
    <g id="Group_114" data-name="Group 114" transform="translate(0)">
      <path id="Path_284" data-name="Path 284" d="M955.418,760.225c-.043-.14-79.746-40.755-80.263-41.127S796.4,766.692,796.4,766.692l78.626,44.942Z" transform="translate(-796.4 -611.534)" fill="rgba(88,88,88,0.38)"/>
      <g id="Group_113" data-name="Group 113" transform="translate(5.127)">
        <g id="Group_111" data-name="Group 111" transform="translate(0 0.035)">
          <g id="Group_110" data-name="Group 110">
            <g id="Group_107" data-name="Group 107" transform="translate(12.192 34.11)">
              <path id="Path_285" data-name="Path 285" d="M958.869,753.5s-60.531-35.5-61.134-36.01c-.6-.465-61.134,36.01-61.134,36.01l61.134,37.824Z" transform="translate(-836.6 -644.821)" fill="#cbda12"/>
              <path id="Path_286" data-name="Path 286" d="M1015.5,590.982l52.389,27.03-29.856-53.27-9.047-3.443Z" transform="translate(-938.425 -561.297)" fill="#6d3633"/>
              <path id="Path_287" data-name="Path 287" d="M936.207,561.3c-.6-.465-99.607,46.2-99.607,46.2v62.528l61.134,37.824,61.134-37.824V601.353S936.811,561.761,936.207,561.3Z" transform="translate(-836.6 -561.293)" fill="#997c4f"/>
              <path id="Path_288" data-name="Path 288" d="M977.7,668.979l38.516-90.071,22.92,36.94V602.915s-17.535-31.45-21.757-38.615L977.7,659.07Z" transform="translate(-916.91 -562.901)" fill="#6d5432"/>
              <path id="Path_289" data-name="Path 289" d="M897.734,832.771,836.6,794.9v8.328l60.79,37.591,61.479-37.591V794.9Z" transform="translate(-836.6 -686.216)" fill="#824d22"/>
              <path id="Path_290" data-name="Path 290" d="M897.39,654l-60.79,3.071v62.482l60.79,37.638Z" transform="translate(-836.6 -610.869)" fill="#fce0ad"/>
              <g id="Group_104" data-name="Group 104" transform="translate(10.297 82.723)">
                <g id="Group_103" data-name="Group 103" transform="translate(0.991 1.768)">
                  <path id="Path_291" data-name="Path 291" d="M871.934,775.234l-9.134-5.257V742.9l9.134,5.257Z" transform="translate(-862.8 -742.9)" fill="#997c4f"/>
                  <path id="Path_292" data-name="Path 292" d="M862.8,742.9l9.134,5.257V760.3c-1.939-1.256-6.29-3.862-9.134-5.536Z" transform="translate(-862.8 -742.9)" fill="#dce7fd"/>
                  <path id="Path_293" data-name="Path 293" d="M868,745.9l4.179,14.469,1.034,1.117-4.093-15.074Z" transform="translate(-865.76 -744.504)" fill="#fff"/>
                </g>
                <path id="Path_294" data-name="Path 294" d="M862.8,742.6l4.136,14.469,1.077,1.163-4.136-15.12Z" transform="translate(-861.809 -740.972)" fill="#fff"/>
                <path id="Path_295" data-name="Path 295" d="M860.5,739.1v29.5l11.115,6.374v-29.5Zm.991,1.768,9.134,5.257V773.2l-9.134-5.257Z" transform="translate(-860.5 -739.1)" fill="#824d22"/>
                <path id="Path_296" data-name="Path 296" d="M871.583,773.341,861.2,767.2v1.442l10.383,6.141Z" transform="translate(-860.898 -754.127)" fill="#824d22"/>
              </g>
              <g id="Group_106" data-name="Group 106" transform="translate(26.367 92.168)">
                <g id="Group_105" data-name="Group 105" transform="translate(0.991 1.768)">
                  <path id="Path_297" data-name="Path 297" d="M909.234,795.581l-9.134-5.3V763.2l9.134,5.257Z" transform="translate(-900.1 -763.2)" fill="#997c4f"/>
                  <path id="Path_298" data-name="Path 298" d="M900.1,763.2l9.134,5.257V780.6c-1.939-1.256-6.29-3.861-9.134-5.536Z" transform="translate(-900.1 -763.2)" fill="#dce7fd"/>
                  <path id="Path_299" data-name="Path 299" d="M905.3,766.2l4.179,14.469,1.034,1.163-4.093-15.12Z" transform="translate(-903.06 -764.804)" fill="#fff"/>
                </g>
                <path id="Path_300" data-name="Path 300" d="M900.1,763l4.136,14.422,1.077,1.163-4.136-15.074Z" transform="translate(-899.109 -761.325)" fill="#fff"/>
                <path id="Path_301" data-name="Path 301" d="M897.8,759.4v29.5l11.115,6.374v-29.5Zm.991,1.768,9.134,5.257V793.5l-9.134-5.257Z" transform="translate(-897.8 -759.4)" fill="#824d22"/>
                <path id="Path_302" data-name="Path 302" d="M908.883,793.741,898.5,787.6V789l10.383,6.141Z" transform="translate(-898.198 -774.48)" fill="#824d22"/>
              </g>
              <path id="Path_303" data-name="Path 303" d="M897.39,654l-60.79,3.071V687.73c8.66,3.815,56.481,29.357,60.79,31.683V654Z" transform="translate(-836.6 -610.869)" fill="#997c4f"/>
              <path id="Path_304" data-name="Path 304" d="M897.39,832.538,836.6,794.9v8.328l60.79,37.591v-8.281Z" transform="translate(-836.6 -686.216)" fill="#824d22"/>
            </g>
            <path id="Path_305" data-name="Path 305" d="M921.608,522.089l-42.48,101.422-68.545-37.778a4.712,4.712,0,0,1-1.723-6.281l43.858-89.233a4.016,4.016,0,0,1,5.471-1.768Z" transform="translate(-808.3 -487.975)" fill="#ce463c"/>
            <g id="Group_108" data-name="Group 108" transform="translate(0 0)">
              <path id="Path_306" data-name="Path 306" d="M879.208,677.826c-3.145-1.582-9.047,2.466-12.494.7-3.231-1.675-4.05-9.165-7.41-10.887s-9.22,2.373-12.494.744c-3.447-1.768-4.265-9.3-7.41-10.887-3.705-1.861-9.608,2.233-12.494.791-4.007-2-6.505-6.327-7.755-8.886l-6.85,13.911c1.336,2.605,3.748,6.374,7.41,8.188,2.886,1.442,8.789-2.652,12.494-.791,3.145,1.582,3.964,9.119,7.41,10.887,3.274,1.675,9.134-2.466,12.494-.744s4.136,9.212,7.41,10.887c3.447,1.768,9.349-2.326,12.494-.7,3.662,1.907,4.524,9.444,7.367,10.887a6.02,6.02,0,0,0,5,.558l5.428-12.934a6.85,6.85,0,0,1-3.231-.884C883.731,687.271,882.913,679.734,879.208,677.826Z" transform="translate(-810.577 -574.298)" fill="#ce463c"/>
              <path id="Path_307" data-name="Path 307" d="M894.389,647.8c-3.145-1.582-9.047,2.466-12.494.7-3.231-1.675-4.05-9.165-7.41-10.887s-9.22,2.373-12.494.744c-3.447-1.768-4.265-9.3-7.41-10.887-3.705-1.861-9.607,2.233-12.494.791-3.49-1.768-5.816-5.257-7.195-7.863L828.3,633.845c1.249,2.605,3.748,6.886,7.755,8.886,2.887,1.442,8.789-2.652,12.494-.791,3.145,1.582,3.964,9.119,7.41,10.887,3.274,1.675,9.134-2.466,12.494-.744s4.136,9.212,7.41,10.887c3.447,1.768,9.349-2.326,12.494-.7,3.662,1.907,4.524,9.444,7.367,10.887a6.976,6.976,0,0,0,3.231.884l6.075-14.516a7.129,7.129,0,0,1-3.274-.884C898.913,657.247,898.094,649.71,894.389,647.8Z" transform="translate(-819.683 -558.79)" fill="#a53a37"/>
              <path id="Path_308" data-name="Path 308" d="M877.146,718.015c-2.886-1.489-3.705-9.026-7.367-10.887-3.145-1.582-9.047,2.466-12.494.7-3.231-1.675-4.05-9.165-7.41-10.887s-9.22,2.373-12.494.744c-3.447-1.768-4.265-9.3-7.41-10.887-3.705-1.861-9.607,2.233-12.494.791-3.662-1.861-6.032-5.583-7.41-8.188l-1.206,2.466a4.725,4.725,0,0,0,1.723,6.281l68.545,37.778,3.059-7.258A6.8,6.8,0,0,1,877.146,718.015Z" transform="translate(-808.3 -590.341)" fill="#a53a37"/>
              <path id="Path_309" data-name="Path 309" d="M910.061,502.921c2.887,1.442,8.789-2.652,12.494-.791,3.145,1.582,3.964,9.119,7.41,10.887,3.274,1.675,9.133-2.466,12.494-.744s4.136,9.212,7.41,10.887c3.447,1.768,9.349-2.326,12.494-.7,3.662,1.907,4.524,9.444,7.367,10.887a12.848,12.848,0,0,0,1.292.558l4.954-11.817L912.6,488.452a4.005,4.005,0,0,0-5.472,1.768l-3.231,6.606A16.273,16.273,0,0,0,910.061,502.921Z" transform="translate(-862.713 -487.975)" fill="#ce463c"/>
              <path id="Path_310" data-name="Path 310" d="M924.77,587.953c-3.145-1.582-9.047,2.466-12.494.7-3.231-1.675-4.05-9.165-7.41-10.887s-9.22,2.373-12.494.744c-3.447-1.768-4.265-9.3-7.41-10.887-3.705-1.861-9.607,2.233-12.494.791a16.872,16.872,0,0,1-6.462-6.513L859.5,575.159c1.379,2.559,3.705,5.955,7.109,7.677,2.886,1.442,8.789-2.652,12.494-.791,3.145,1.582,3.964,9.119,7.41,10.887,3.274,1.675,9.133-2.466,12.494-.744s4.136,9.212,7.41,10.887c3.447,1.768,9.349-2.326,12.494-.7,3.662,1.907,4.524,9.444,7.367,10.887a8.649,8.649,0,0,0,2.413.837l6.032-14.376a7.6,7.6,0,0,1-2.628-.837C929.294,597.351,928.476,589.814,924.77,587.953Z" transform="translate(-837.442 -527.507)" fill="#a53a37"/>
              <path id="Path_311" data-name="Path 311" d="M909.9,617.517c-3.145-1.582-9.047,2.466-12.494.7-3.231-1.675-4.05-9.165-7.41-10.887s-9.22,2.373-12.494.744c-3.447-1.768-4.265-9.3-7.41-10.887-3.705-1.861-9.607,2.233-12.494.791-3.4-1.721-5.73-5.118-7.109-7.676l-6.893,14c1.379,2.605,3.705,6.095,7.195,7.863,2.887,1.442,8.789-2.652,12.494-.791,3.145,1.582,3.964,9.119,7.41,10.887,3.274,1.675,9.134-2.466,12.494-.744s4.136,9.212,7.41,10.887c3.447,1.768,9.349-2.326,12.494-.7,3.662,1.907,4.524,9.444,7.367,10.887a7,7,0,0,0,3.274.884l5.988-14.236a7.371,7.371,0,0,1-2.413-.837C914.385,626.961,913.566,619.424,909.9,617.517Z" transform="translate(-828.392 -542.694)" fill="#ce463c"/>
              <path id="Path_312" data-name="Path 312" d="M961.648,543.521c-2.886-1.489-3.705-9.026-7.367-10.887-3.145-1.582-9.047,2.466-12.494.7-3.231-1.675-4.05-9.165-7.41-10.887s-9.22,2.373-12.494.744c-3.447-1.768-4.265-9.3-7.41-10.887-3.705-1.861-9.607,2.233-12.494.791a16.713,16.713,0,0,1-6.2-6.095L889.7,519.422a16.532,16.532,0,0,0,6.075,5.909c2.887,1.442,8.789-2.652,12.494-.791,3.145,1.582,3.964,9.119,7.41,10.887,3.274,1.675,9.134-2.466,12.494-.744s4.136,9.212,7.41,10.887c3.447,1.768,9.349-2.326,12.494-.7,3.662,1.907,4.524,9.444,7.367,10.887a7.954,7.954,0,0,0,2.327.791l5.213-12.468A10.1,10.1,0,0,1,961.648,543.521Z" transform="translate(-854.631 -498.149)" fill="#a53a37"/>
              <path id="Path_313" data-name="Path 313" d="M939.44,559.049c-3.145-1.582-9.047,2.466-12.494.7-3.231-1.675-4.05-9.165-7.41-10.887s-9.22,2.373-12.494.744c-3.447-1.768-4.265-9.3-7.41-10.887-3.705-1.861-9.607,2.233-12.494.791a16.533,16.533,0,0,1-6.075-5.909L874.6,546.72a16.872,16.872,0,0,0,6.462,6.513c2.887,1.442,8.789-2.652,12.494-.791,3.145,1.582,3.964,9.119,7.41,10.887,3.274,1.675,9.134-2.466,12.494-.744s4.136,9.212,7.41,10.887c3.447,1.768,9.349-2.326,12.494-.7,3.662,1.907,4.524,9.444,7.367,10.887a7.6,7.6,0,0,0,2.628.837l5.773-13.771a7.954,7.954,0,0,1-2.326-.791C943.963,568.493,943.145,560.956,939.44,559.049Z" transform="translate(-846.036 -512.373)" fill="#ce463c"/>
            </g>
            <path id="Path_314" data-name="Path 314" d="M867.306,651.478,860.8,661.713l19.258,8.7,17.233-26.658L886.219,639.8Z" transform="translate(-838.182 -569.165)" fill="#6d3633"/>
            <path id="Path_315" data-name="Path 315" d="M1008.626,558.4,965.5,659.45l3.059,1.675,42.523-101.376Z" transform="translate(-897.774 -525.635)" fill="#6d3633"/>
            <path id="Path_316" data-name="Path 316" d="M1069.265,561.3l31.235,54.666-2.843,2.047-29.856-53.27Z" transform="translate(-956 -527.186)" fill="#6d3633"/>
            <g id="Group_109" data-name="Group 109" transform="translate(98.272 106.005)">
              <path id="Path_317" data-name="Path 317" d="M1056.275,716.043l-18.353,8.467a2.5,2.5,0,0,0-1.422,2.326v56.108l21.757-13.306v-52.2A1.415,1.415,0,0,0,1056.275,716.043Z" transform="translate(-1036.457 -715.869)" fill="#ce463c"/>
              <path id="Path_318" data-name="Path 318" d="M1039.33,725.165l18.353-8.467a.754.754,0,0,1,.3-.093,1.37,1.37,0,0,0-1.809-.651l-18.353,8.467a2.5,2.5,0,0,0-1.422,2.326V782.9l1.465-.884V727.491A2.756,2.756,0,0,1,1039.33,725.165Z" transform="translate(-1036.4 -715.825)" fill="#6d3633"/>
              <ellipse id="Ellipse_3" data-name="Ellipse 3" cx="1.809" cy="2.326" rx="1.809" ry="2.326" transform="translate(3.317 37.859)" fill="#6d3633"/>
              <path id="Path_319" data-name="Path 319" d="M1061.583,727.392l-12.537,5.816a1.183,1.183,0,0,0-.646,1.07v20.889a1.118,1.118,0,0,0,1.594,1.07l12.537-6.746a1.147,1.147,0,0,0,.6-1.07V728.462A1.141,1.141,0,0,0,1061.583,727.392Z" transform="translate(-1043.23 -721.96)" fill="#6d3633"/>
              <path id="Path_320" data-name="Path 320" d="M1061.583,794.771l-12.537,7.118a1.183,1.183,0,0,0-.646,1.07v12.05a1.118,1.118,0,0,0,1.594,1.07l12.537-6.746a1.147,1.147,0,0,0,.6-1.07V795.841A1.122,1.122,0,0,0,1061.583,794.771Z" transform="translate(-1043.23 -757.982)" fill="#6d3633"/>
            </g>
          </g>
        </g>
        <path id="Path_321" data-name="Path 321" d="M875.9,570.248l17.492,6.281,12.494-14v-66.9L889.471,487.9l-12.494,6.281Z" transform="translate(-846.776 -487.9)" fill="#fce0ad"/>
        <g id="Group_112" data-name="Group 112" transform="translate(30.201)">
          <path id="Path_322" data-name="Path 322" d="M907.352,495.623,890.894,487.9,878.4,494.181l16.716,8.793Z" transform="translate(-878.4 -487.9)" fill="#ceaf7e"/>
          <path id="Path_323" data-name="Path 323" d="M908.331,496.786,893.812,489.9,883.3,495.157l14.605,7.77Z" transform="translate(-881.189 -488.97)" fill="#705534"/>
          <path id="Path_324" data-name="Path 324" d="M917.2,511.851V585.08L929.392,571.4l.431-66.809-.388-.093Z" transform="translate(-900.484 -496.777)" fill="#af9164"/>
        </g>
      </g>
    </g>
    <path id="Path_325" data-name="Path 325" d="M1006.9,671.349l26.237-60.249,20.809,38.1Z" transform="translate(-916.211 -553.782)" fill="#fce0ad"/>
    <path id="Path_326" data-name="Path 326" d="M1067.43,613.8l-1.508-2.7-1.379,3.21-.043,45.361,2.93-1.349Z" transform="translate(-948.995 -553.782)" fill="#997c4f"/>
  </g>
</svg>
