<svg xmlns="http://www.w3.org/2000/svg" width="49.788" height="49.788" viewBox="0 0 49.788 49.788">
  <path id="ic_call_24px" d="M42.775,24.547A41.9,41.9,0,0,1,24.547,42.775L18.462,36.69a2.75,2.75,0,0,0-2.821-.664A31.552,31.552,0,0,1,5.766,37.6,2.774,2.774,0,0,0,3,40.369v9.653a2.774,2.774,0,0,0,2.766,2.766A47.018,47.018,0,0,0,52.788,5.766,2.774,2.774,0,0,0,50.022,3H40.341a2.774,2.774,0,0,0-2.766,2.766A31.423,31.423,0,0,1,36,15.641a2.776,2.776,0,0,0,.692,2.821Z" transform="translate(-3 -3)" fill="#fff"/>
</svg>
